<svg id="Icona_euro" data-name="Icona euro" xmlns="http://www.w3.org/2000/svg" width="16" height="16" viewBox="0 0 16 16">
  <path id="Tracciato_895" data-name="Tracciato 895" d="M38.735,35.9a1.845,1.845,0,0,1,1.314.56.551.551,0,1,0,.755-.8,2.987,2.987,0,0,0-2.093-.852,3.331,3.331,0,0,0-3.043,2.385h-.73a.438.438,0,1,0,0,.876h.535a2,2,0,0,0,0,.876h-.535a.438.438,0,1,0,0,.876h.73A3.307,3.307,0,0,0,38.711,42.2a3.144,3.144,0,0,0,2.093-.852.544.544,0,0,0,.024-.779.567.567,0,0,0-.779-.024,1.888,1.888,0,0,1-1.314.56,2.066,2.066,0,0,1-1.826-1.29h1.826a.438.438,0,1,0,0-.876H36.642a2.646,2.646,0,0,1-.024-.438c0-.146.024-.292.024-.438h2.093a.438.438,0,1,0,0-.876H36.91A2.066,2.066,0,0,1,38.735,35.9Z" transform="translate(-29.902 -30.67)" fill="#232323"/>
  <g id="Ellisse_93" data-name="Ellisse 93" fill="none" stroke="#232323" stroke-width="1">
    <circle cx="8" cy="8" r="8" stroke="none"/>
    <circle cx="8" cy="8" r="7.5" fill="none"/>
  </g>
</svg>
