<svg xmlns="http://www.w3.org/2000/svg" width="17.35" height="13.765" viewBox="0 0 17.35 13.765">
  <g id="Icona_risposte" data-name="Icona risposte" transform="translate(0.447 0.4)">
    <path id="Tracciato_167" data-name="Tracciato 167" d="M11.975,21.494a.369.369,0,0,0,.288,0,.365.365,0,0,0,.121-.081l1.745-1.745a.374.374,0,0,0-.529-.529l-1.107,1.107V18.1a2.683,2.683,0,0,1,2.68-2.68h6.109a2.683,2.683,0,0,1,2.68,2.68.374.374,0,0,0,.748,0,3.432,3.432,0,0,0-3.428-3.428H15.174A3.432,3.432,0,0,0,11.745,18.1v2.152L10.638,19.14a.374.374,0,1,0-.529.529l1.745,1.745a.365.365,0,0,0,.121.081Z" transform="translate(-10 -14.667)" fill="#514f8d" stroke="#514f8d" stroke-width="0.8"/>
    <path id="Tracciato_168" data-name="Tracciato 168" d="M29.268,32.858l-1.744-1.743a.365.365,0,0,0-.122-.082h0a.365.365,0,0,0-.282,0h0a.365.365,0,0,0-.122.082l-1.745,1.743a.374.374,0,0,0,.529.529l1.107-1.107V34.43a2.683,2.683,0,0,1-2.68,2.68H18.1a2.683,2.683,0,0,1-2.68-2.68.374.374,0,0,0-.748,0A3.432,3.432,0,0,0,18.1,37.859H24.2a3.432,3.432,0,0,0,3.428-3.428V32.279l1.107,1.107a.374.374,0,1,0,.529-.529Z" transform="translate(-12.922 -24.894)" fill="#514f8d" stroke="#514f8d" stroke-width="0.8"/>
  </g>
</svg>
