<svg xmlns="http://www.w3.org/2000/svg" width="20.889" height="16.211" viewBox="0 0 20.889 16.211">
  <g id="icona_abbonamento" data-name="icona abbonamento" transform="translate(0.1 0.101)">
    <path id="Tracciato_7668" data-name="Tracciato 7668" d="M61.521,44.395,55.14,42.939a1.067,1.067,0,0,0-1.3,1.3L55.1,50.82a1.061,1.061,0,0,0,1.853.384l.96-1.2a.348.348,0,0,1,.257-.132.343.343,0,0,1,.27.1l1.345,1.148a1.087,1.087,0,0,0,1.5,0l.741-.741a1.062,1.062,0,0,0,0-1.5l-1.345-1.148a.355.355,0,0,1,.029-.526l1.2-.96a1.069,1.069,0,0,0-.384-1.853Zm-.058,1.3-1.2.96a1.064,1.064,0,0,0-.4.77c-.075.627,1.29,1.557,1.654,1.958a.354.354,0,0,1,0,.5l-.741.741a.362.362,0,0,1-.5,0l-1.345-1.148a1.069,1.069,0,0,0-1.58.088l-.96,1.2a.356.356,0,0,1-.617-.128l-1.259-6.577a.348.348,0,0,1,.091-.343.365.365,0,0,1,.343-.091l6.38,1.455a.355.355,0,0,1,.128.617Z" transform="translate(-42.843 -35.692)" fill="#6f6bb2" stroke="#6f6bb2" stroke-width="0.4"/>
    <path id="Tracciato_7672" data-name="Tracciato 7672" d="M11.571,28.382c.071-.017,3.311.012,3.284,0a.421.421,0,0,0,0-.842H11.571a5.052,5.052,0,0,1,0-10.1H20.71c3.716-.065,6.063,3.459,4.282,6.717a.421.421,0,0,0,.177.568c.868.446,1.278-2.351,1.24-2.915,0-3.25-2.459-5.212-5.7-5.212H11.57a5.894,5.894,0,0,0,0,11.787Z" transform="translate(-5.724 -16.594)" fill="#6f6bb2" stroke="#6f6bb2" stroke-width="0.2"/>
    <path id="Tracciato_7673" data-name="Tracciato 7673" d="M18.28,35.616l1.79,1.79a.6.6,0,0,0,.844,0l4.177-4.177a.6.6,0,0,0-.844-.844L20.493,36.14l-1.368-1.368a.6.6,0,0,0-.844.844Z" transform="translate(-15.269 -28.997)" fill="#6f6bb2" stroke="#6f6bb2" stroke-width="0.2"/>
  </g>
</svg>
