<svg xmlns="http://www.w3.org/2000/svg" width="16.318" height="16.669" viewBox="0 0 16.318 16.669">
  <g id="icona_notifiche" data-name="icona notifiche" transform="translate(0.893 0.936)">
    <path id="Tracciato_71" data-name="Tracciato 71" d="M22.869,25.011a2.579,2.579,0,0,1-2.444-1.42,3.247,3.247,0,0,1-.273-.8H16.759a.559.559,0,0,1-.4-.954,6.167,6.167,0,0,0,1.5-4.049,9.218,9.218,0,0,1,.829-4.358,4.218,4.218,0,0,1,3.615-2.289v-1.13a.559.559,0,1,1,1.117,0v1.13a4.218,4.218,0,0,1,3.615,2.289,9.217,9.217,0,0,1,.829,4.358,6.1,6.1,0,0,0,1.5,4.049.559.559,0,0,1-.4.954H25.586a3.247,3.247,0,0,1-.273.8A2.579,2.579,0,0,1,22.869,25.011ZM21.3,22.789a1.961,1.961,0,0,0,.135.331,1.462,1.462,0,0,0,1.43.774,1.462,1.462,0,0,0,1.43-.774,1.96,1.96,0,0,0,.135-.331Zm3.829-1.117h2.728a7.351,7.351,0,0,1-1.107-3.885c0-3.84-1.2-5.552-3.885-5.552s-3.885,1.712-3.885,5.552a7.351,7.351,0,0,1-1.107,3.885h7.172A.571.571,0,0,1,25.133,21.671Z" transform="translate(-15.268 -9.277)" fill="#6f6bb2"/>
    <path id="Tracciato_7676" data-name="Tracciato 7676" d="M-7850.108-23107.707a3.915,3.915,0,0,1,2.758,3.18" transform="translate(7861.884 23107.707)" fill="none" stroke="#6f6bb2" stroke-linecap="round" stroke-width="1.5"/>
    <path id="Tracciato_7677" data-name="Tracciato 7677" d="M-7847.35-23107.707a3.914,3.914,0,0,0-2.758,3.18" transform="translate(7850.108 23107.707)" fill="none" stroke="#6f6bb2" stroke-linecap="round" stroke-width="1.5"/>
  </g>
</svg>
