<svg xmlns="http://www.w3.org/2000/svg" width="33.225" height="32.87" viewBox="0 0 33.225 32.87">
  <g id="icona_inviato" data-name="icona inviato" transform="translate(0.5 0.421)">
    <path id="Tracciato_7674" data-name="Tracciato 7674" d="M35.645,3.262A2.248,2.248,0,0,0,33.3,2.743L9.832,11.713A2.246,2.246,0,0,0,9.9,15.976l9.372,3.661,3.661,9.371A2.219,2.219,0,0,0,25,30.582h.076a2.221,2.221,0,0,0,2.117-1.488L36.182,5.562A2.223,2.223,0,0,0,35.645,3.262Zm-10.57,24.29-3.4-8.7,3.316-3.318a1.262,1.262,0,0,0-1.785-1.785l-3.392,3.392-8.458-3.3,22.207-8.49ZM17.517,22.93,6.155,34.292A1.262,1.262,0,0,1,4.37,32.507L15.732,21.145a1.262,1.262,0,0,1,1.785,1.785Zm2.525,6.312-5.05,5.05a1.262,1.262,0,0,1-1.785-1.785l5.05-5.05a1.262,1.262,0,0,1,1.785,1.785ZM4.37,25.455a1.261,1.261,0,0,1,0-1.785l5.05-5.05A1.262,1.262,0,0,1,11.2,20.406l-5.05,5.05a1.262,1.262,0,0,1-1.785,0Z" transform="translate(-4 -2.613)" fill="#b72522" stroke="#faeaeb" stroke-width="0.8"/>
  </g>
</svg>
