<svg xmlns="http://www.w3.org/2000/svg" width="15.141" height="15.146" viewBox="0 0 15.141 15.146">
  <g id="Icona_condividi" data-name="Icona condividi" transform="translate(0.1 0.103)">
    <path id="Tracciato_614" data-name="Tracciato 614" d="M22.866,10.646,18,14.967h0a.614.614,0,0,1-1-.55V13.043c-3.808.059-6.765,2.668-7.907,6.6a.459.459,0,0,1-.9-.113h0c-.175-5.266,1.335-8.315,3.286-10.087A9.822,9.822,0,0,1,17,7.089a9.388,9.388,0,0,1,.051-1.638A.583.583,0,0,1,18,5.181l4.894,4.345h0a.766.766,0,0,1-.026,1.121Zm-4.944,3.162,4.205-3.734L17.922,6.341V7.5a.46.46,0,0,1-.421.459c-4.7.41-7.843,3.217-8.334,9.069a9.6,9.6,0,0,1,2.511-3.027,8.792,8.792,0,0,1,5.763-1.875.459.459,0,0,1,.481.46v1.218Z" transform="translate(-8.182 -5.031)" fill="#232323" stroke="#232323" stroke-width="0.2" fill-rule="evenodd"/>
  </g>
</svg>
